<svg width="36" height="36" xmlns="http://www.w3.org/2000/svg">
 <style type="text/css">.st0{fill-rule:evenodd;clip-rule:evenodd;}</style>

 <g>
  <title>background</title>
  <rect x="-1" y="-1" width="6.499993" height="6.499993" id="canvas_background" fill="none"/>
 </g>
 <g>
  <title>Layer 1</title>
  <g stroke="null" id="svg_1">
   <path stroke="null" class="st0" d="m29.904189,8.249243l-16.017572,0l0,2.905751c0,0.011028 0,0.022055 0,0.033083c0.040568,0.940096 0.091278,1.772674 0.138607,2.475678c0.131846,2.073174 0.196078,3.093219 -0.30764,4.060884c-0.483434,0.929068 -1.406355,1.621045 -3.228532,2.980187c-0.689655,0.515537 -1.524678,1.138591 -2.616632,1.990467c-0.033807,0.027569 -0.070994,0.052381 -0.108181,0.071679l0,0c-2.883704,1.615532 -3.695062,3.945095 -3.157538,6.026539c0.216362,0.840848 0.652468,1.6431 1.257606,2.346105c0.605139,0.700247 1.375929,1.295733 2.265043,1.728564c2.153481,1.042101 5.047327,1.116536 8.025689,-0.669922c1.477349,-0.887715 4.45233,-3.220036 7.045297,-5.25737c1.676808,-1.317789 3.198106,-2.511517 4.09398,-3.137329c0.449628,-0.314284 0.86883,-0.664408 1.217038,-1.042101c0.304259,-0.330826 0.557809,-0.680949 0.730223,-1.047614c0.686274,-1.452876 0.679513,-3.553618 0.669371,-7.223025c-0.003381,-1.025559 -0.006761,-0.975935 -0.006761,-1.527311l0,-4.714264l0,0l0,-0.000001zm-18.252189,-7.123777l20.334676,0c0.916159,0 1.663286,0.60927 1.663286,1.356385l0,3.774168c0,0.747114 -0.747126,1.356385 -1.663286,1.356385l-0.378634,0l0,5.34559c0,1.626559 0,1.46666 0,1.527311c0.010142,3.829306 0.016903,6.023782 -0.780932,7.716506c-0.233265,0.496238 -0.56457,0.959394 -0.956727,1.383954c-0.432725,0.46867 -0.936443,0.890472 -1.470587,1.265408c-0.855307,0.601 -2.359702,1.780944 -4.019606,3.084948c-2.633535,2.06766 -5.652465,4.43582 -7.217711,5.375916c-3.617307,2.172421 -7.194046,2.053875 -9.891814,0.747114c-1.102095,-0.534835 -2.052061,-1.268165 -2.792426,-2.122797c-0.736984,-0.851876 -1.264368,-1.830568 -1.531439,-2.861641c-0.66599,-2.572169 0.311021,-5.436567 3.803243,-7.418763c0.977011,-0.760899 1.862744,-1.42255 2.596347,-1.973926c1.63624,-1.221298 2.464502,-1.841596 2.809329,-2.503247c0.348209,-0.672679 0.290737,-1.587963 0.172414,-3.448857c-0.043948,-0.680949 -0.094659,-1.485958 -0.138607,-2.497733c-0.003381,-0.027569 -0.006761,-0.052381 -0.006761,-0.07995l0,-3.539834l-0.534145,0c-0.916159,0 -1.663286,-0.60927 -1.663286,-1.356385l0,-3.774168c0.003381,-0.747114 0.753888,-1.356385 1.666666,-1.356385l0,0l0.000001,0.000001zm11.771462,14.131766l1.355645,-1.21027c0.212982,-0.190225 0.571332,-0.201252 0.804597,-0.030326c0.233265,0.173683 0.246788,0.465913 0.037187,0.656137l-0.655848,0.584459l0.889113,0c0.314402,0 0.571332,0.209523 0.571332,0.465913c0,0.25639 -0.25693,0.465913 -0.571332,0.465913l-0.807978,0l0.625422,0.55689c0.212982,0.190225 0.196078,0.482454 -0.037187,0.656137c-0.233265,0.173683 -0.591615,0.159899 -0.804597,-0.030326l-1.325219,-1.182701l-1.467207,0l0,1.157889l1.524678,1.135834c0.233265,0.173683 0.246788,0.465913 0.037187,0.656137c-0.212982,0.190225 -0.571332,0.201252 -0.804597,0.030326l-0.757268,-0.562403l0,0.700247c0,0.25639 -0.25693,0.465913 -0.571332,0.465913c-0.314402,0 -0.571332,-0.209523 -0.571332,-0.465913l0,-0.656137l-0.642326,0.479697c-0.233265,0.173683 -0.591615,0.159899 -0.804597,-0.030326c-0.212982,-0.190225 -0.196078,-0.482454 0.037187,-0.656137l1.409736,-1.053128l0,-1.202l-1.409736,0l-1.325219,1.182701c-0.212982,0.190225 -0.571332,0.201252 -0.804597,0.030326c-0.233265,-0.173683 -0.246788,-0.465913 -0.037187,-0.656137l0.625422,-0.55689l-0.865449,0c-0.314402,0 -0.571332,-0.209523 -0.571332,-0.465913c0,-0.25639 0.25693,-0.465913 0.571332,-0.465913l0.946585,0l-0.655848,-0.584459c-0.212982,-0.190225 -0.196078,-0.482454 0.037187,-0.656137c0.233265,-0.173683 0.591615,-0.159899 0.804597,0.030326l1.355645,1.21027l1.331981,0l0,-1.182701l-1.409736,-1.053128c-0.233265,-0.173683 -0.246788,-0.465913 -0.037187,-0.656137c0.212982,-0.190225 0.571332,-0.201252 0.804597,-0.030326l0.642326,0.479697l0,-0.672679c0,-0.25639 0.25693,-0.465913 0.571332,-0.465913c0.314402,0 0.571332,0.209523 0.571332,0.465913l0,0.716789l0.757268,-0.562403c0.233265,-0.173683 0.591615,-0.159899 0.804597,0.030326c0.212982,0.190225 0.196078,0.482454 -0.037187,0.656137l-1.524678,1.135834l0,1.138591l1.38269,0l0,0l0.000001,0.000001z" id="svg_2"/>
  </g>
 </g>
</svg>