<svg width="36" height="36" xmlns="http://www.w3.org/2000/svg">

 <g>
  <title>background</title>
  <rect fill="none" id="canvas_background" height="38" width="38" y="-1" x="-1"/>
 </g>
 <g>
  <title>Layer 1</title>
  <g stroke="null" id="svg_1">
   <path stroke="null" id="svg_2" d="m26.410212,6.16711l-16.827257,0l0,0.873542c0,0.013735 0,0.030217 -0.00341,0.043952c0.013639,1.439422 -0.92746,2.123422 -2.090194,2.969495c-0.654677,0.475229 -1.39119,1.013639 -2.025408,1.826748c0.548974,-0.032964 1.145686,-0.002747 1.752626,0.074169c1.837871,0.225253 3.866689,0.857061 4.879393,1.313061c3.038113,1.365253 4.756641,0.714217 6.563824,0.030217c1.609416,-0.609832 3.276797,-1.241639 5.806853,-0.851567c1.507122,0.233494 2.509597,0.348868 3.321124,0.219759c0.77061,-0.123614 1.452566,-0.494458 2.380025,-1.241639c0.013639,-0.010988 0.027278,-0.021976 0.044327,-0.032964l0.027278,-0.021976c-0.402354,-0.37359 -0.838806,-0.694988 -1.258208,-1.008145c-1.350272,-1.002651 -2.567563,-1.909157 -2.567563,-3.80458l0,-0.390072l-0.00341,0zm-21.737339,7.035038c-0.473959,1.065832 -0.77402,2.475037 -0.729693,4.417158l0,0.008241l0.00341,0l0,8.999135c0.071605,0.414795 0.16026,0.813109 0.265963,1.192193c0.112523,0.398313 0.238685,0.769157 0.381895,1.120771c0.651268,1.585013 1.667382,2.779953 3.041523,3.590314c1.370731,0.807615 3.116538,1.244386 5.2306,1.315808l0,0l10.406644,0c2.298191,-0.211518 4.183798,-0.725205 5.598856,-1.593254c1.398009,-0.854314 2.352747,-2.07123 2.802838,-3.6947c0.109113,-0.390072 0.187538,-0.804868 0.238685,-1.244386c0.051147,-0.442265 0.071605,-0.912 0.061376,-1.403711l0,-0.008241l-0.00341,0l0,-8.680485c0,-0.035711 0.00341,-0.068675 0.010229,-0.101639c0.064786,-0.607085 0.085244,-1.197687 0.047737,-1.769061c-0.037508,-0.582362 -0.129572,-1.14 -0.289831,-1.670169c-0.15685,-0.521928 -0.381895,-0.96694 -0.658087,-1.357012c-1.094539,0.865301 -1.967442,1.310314 -3.024474,1.47788c-1.046802,0.167566 -2.185668,0.041205 -3.870099,-0.219759c-2.076555,-0.321398 -3.525711,0.228 -4.92713,0.758169c-2.144751,0.813109 -4.194028,1.58776 -7.869769,-0.065928c-0.900182,-0.406554 -2.724413,-0.969687 -4.391795,-1.175711c-0.941099,-0.112627 -1.807183,-0.115374 -2.325469,0.104386l0,0zm3.836001,-11.952148l18.972008,0c0.838806,0 1.599186,0.274699 2.15157,0.719711c0.552384,0.445012 0.893362,1.057591 0.893362,1.73335c0,0.675759 -0.340978,1.288338 -0.893362,1.73335c-0.470549,0.379084 -1.091129,0.634554 -1.779904,0.703229l0,0.414795c0,1.389976 0.995655,2.128916 2.100424,2.950266c1.241159,0.922988 2.594842,1.931133 3.184733,3.906218c0.180718,0.607085 0.286421,1.233398 0.327339,1.87894c0.040917,0.623566 0.020459,1.269109 -0.054556,1.93388l0,8.677738l-0.00341,0c0.010229,0.530169 -0.010229,1.035615 -0.068196,1.516338c-0.054556,0.488964 -0.143211,0.950458 -0.265963,1.389976c-0.528516,1.90641 -1.663972,3.343085 -3.338173,4.364965c-1.633284,0.999904 -3.760986,1.590507 -6.3115,1.824001c-0.040917,0.005494 -0.081835,0.008241 -0.126162,0.008241l-10.427103,0l0,-0.002747l-0.027278,0c-2.420943,-0.076916 -4.439532,-0.587856 -6.052357,-1.538314c-1.616235,-0.953205 -2.802838,-2.337687 -3.552989,-4.161688c-0.163669,-0.392819 -0.30347,-0.804868 -0.422813,-1.227904c-0.115932,-0.412048 -0.211406,-0.846073 -0.289831,-1.293832c-0.010229,-0.041205 -0.017049,-0.08241 -0.017049,-0.123614l0,-9.026605l0.00341,0c-0.122752,-5.419809 2.226585,-7.131183 4.016719,-8.433256c0.893362,-0.648289 1.616235,-1.175711 1.616235,-2.098699c-0.00341,-0.019229 -0.00341,-0.038458 -0.00341,-0.05494l0,-0.903759c-0.692185,-0.068675 -1.312765,-0.324145 -1.783314,-0.703229c-0.552384,-0.445012 -0.893362,-1.057591 -0.893362,-1.73335c0,-0.675759 0.340978,-1.288338 0.893362,-1.73335c0.552384,-0.445012 1.312765,-0.719711 2.15157,-0.719711l0,0zm18.972008,1.161976l-18.972008,0c-0.439861,0 -0.842215,0.14559 -1.132047,0.379084c-0.289831,0.233494 -0.470549,0.557639 -0.470549,0.912c0,0.354362 0.180718,0.678506 0.470549,0.912c0.289831,0.233494 0.692185,0.379084 1.132047,0.379084l18.972008,0c0.439861,0 0.842215,-0.14559 1.132047,-0.379084c0.289831,-0.233494 0.470549,-0.557639 0.470549,-0.912c0,-0.354362 -0.180718,-0.678506 -0.470549,-0.912c-0.289831,-0.233494 -0.692185,-0.379084 -1.132047,-0.379084l0,0z"/>
  </g>
 </g>
</svg>